<svg width="180" height="180" viewBox="0 0 180 180" fill="none" xmlns="http://www.w3.org/2000/svg">
<rect width="180" height="180" rx="24" fill="url(#paint0_radial_175_34)"/>
<path d="M89.9996 32.1774C100.382 32.1774 109.29 34.1721 116.721 38.1617C124.262 42.0435 130 47.7051 133.934 55.1451C137.978 62.4773 140 71.2651 140 81.5084V137.566C140 143.231 135.407 147.823 129.743 147.823H118.196V81.5084C118.196 72.2356 115.683 65.0112 110.656 59.8356C105.738 54.552 98.8519 51.9098 89.9996 51.9098C81.1474 51.9099 74.2074 54.5521 69.1802 59.8356C64.2625 65.0113 61.8033 72.2355 61.8033 81.5084V147.823H50.2574C44.5929 147.823 40.0005 143.231 40.0005 137.566V81.5084C40.0006 71.2651 41.9677 62.4773 45.9019 55.1451C49.9455 47.7051 55.6833 42.0435 63.1148 38.1617C70.6556 34.1722 79.6174 32.1774 89.9996 32.1774ZM105.795 97.8141C107.427 97.8141 108.75 99.1369 108.75 100.768V116.739C108.75 118.37 107.427 119.693 105.795 119.693H105.454C103.822 119.693 102.5 118.37 102.5 116.739V100.768C102.5 99.1369 103.822 97.8141 105.454 97.8141H105.795Z" fill="white"/>
<defs>
<radialGradient id="paint0_radial_175_34" cx="0" cy="0" r="1" gradientTransform="matrix(180.934 212.417 -205.2 181.128 -12.918 -5.41666)" gradientUnits="userSpaceOnUse">
<stop stop-color="#38EB91"/>
<stop offset="0.669174" stop-color="#205455"/>
</radialGradient>
</defs>
</svg>
