<svg width="180" height="180" viewBox="0 0 180 180" fill="none" xmlns="http://www.w3.org/2000/svg">
<g clip-path="url(#clip0_350_100)">
<path d="M90 -0.199615C106.197 -0.199614 120.092 2.91177 131.686 9.13535C143.449 15.1907 152.399 24.0224 158.537 35.6285C164.845 47.0664 168 60.7751 168 76.7545V164.2C168 173.036 160.836 180.2 152 180.2H133.986V76.7545C133.986 62.2889 130.065 51.0188 122.223 42.9449C114.551 34.7029 103.81 30.5816 90 30.5816C76.1902 30.5816 65.3641 34.7029 57.5215 42.9449C49.8494 51.0188 46.0137 62.2889 46.0137 76.7545V180.2H28C19.1635 180.2 12 173.036 12 164.2V76.7545C12 60.7751 15.0694 47.0664 21.207 35.6285C27.5152 24.0224 36.4662 15.1907 48.0596 9.13535C59.8234 2.91196 73.8036 -0.199615 90 -0.199615ZM114.642 102.19C117.186 102.19 119.25 104.253 119.25 106.797V131.712C119.25 134.256 117.186 136.319 114.642 136.319H114.107C111.563 136.319 109.5 134.256 109.5 131.712V106.797C109.5 104.253 111.563 102.19 114.107 102.19H114.642Z" fill="black"/>
</g>
<defs>
<clipPath id="clip0_350_100">
<rect width="180" height="180" rx="24" fill="white"/>
</clipPath>
</defs>
</svg>
